<svg width="60" height="60" fill="none" xmlns="http://www.w3.org/2000/svg"><path d="M31.106.685a.627.627 0 00-.04.467c.024.072.07.139.14.202.069.06.166.119.29.175.126.053.288.107.487.161.4.116.69.26.87.431.184.172.267.398.25.679a.957.957 0 01-.4.732 1.135 1.135 0 01-.404.183 1.64 1.64 0 01-.504.041 2.21 2.21 0 01-.792-.19 2.339 2.339 0 01-.658-.486l.274-.285c.18.185.364.327.552.426.19.095.41.151.663.167.246.016.445-.03.598-.135a.544.544 0 00.252-.438.588.588 0 00-.027-.231.462.462 0 00-.134-.197 1.03 1.03 0 00-.282-.169 3.563 3.563 0 00-.46-.16 3.886 3.886 0 01-.535-.19 1.36 1.36 0 01-.366-.237.784.784 0 01-.205-.305.982.982 0 01-.048-.4.906.906 0 01.382-.69 1.15 1.15 0 01.393-.185c.149-.043.31-.059.483-.048a1.934 1.934 0 011.25.528l-.258.302A1.768 1.768 0 0032.38.5a1.542 1.542 0 00-.53-.127 1.05 1.05 0 00-.325.026.854.854 0 00-.252.11.58.58 0 00-.168.177z" fill="#fff"/><path fill-rule="evenodd" clip-rule="evenodd" d="M37.076 1.498c.037.152.038.317.003.494a1.136 1.136 0 01-.212.49 1.09 1.09 0 01-.38.307c-.145.074-.308.12-.488.138a2.07 2.07 0 01-.556-.035l-.869-.171-.248 1.263-.404-.08.704-3.578 1.338.263c.201.04.378.103.531.19.157.083.284.186.38.308.1.119.167.256.2.41zm-.544.742a.757.757 0 00.136-.313c.05-.259 0-.47-.152-.635-.147-.167-.366-.279-.656-.336l-.904-.178-.31 1.575.885.174c.146.029.283.036.41.022a.944.944 0 00.342-.097.712.712 0 00.249-.212z" fill="#fff"/><path d="M41.042 2.057l-2.493-.852-1.179 3.451 2.519.861.12-.355-2.128-.727.412-1.208 1.883.643.121-.355-1.883-.643.403-1.179 2.104.72.121-.356zm2.581 4.347l.12.36a2.664 2.664 0 01-.385.102 1.83 1.83 0 01-.78-.03 2.019 2.019 0 01-.425-.163 1.8 1.8 0 01-.99-1.785 2 2 0 01.215-.72c.118-.233.27-.43.454-.594a1.89 1.89 0 01.615-.359 1.73 1.73 0 01.704-.097c.247.012.49.08.728.2.148.077.275.157.38.241a1.837 1.837 0 01.48.584c.055.106.103.218.144.337l-.388.141a2.277 2.277 0 00-.286-.55 1.354 1.354 0 00-.508-.416 1.38 1.38 0 00-.553-.153 1.404 1.404 0 00-1.025.372 1.63 1.63 0 00-.36.478 1.53 1.53 0 00-.13 1.138c.054.18.138.343.253.491.12.147.27.266.45.358.222.113.434.17.636.172.204-.001.42-.037.65-.107zm2.467-1.722l-1.968 3.064.345.222 1.969-3.064-.346-.222z" fill="#fff"/><path fill-rule="evenodd" clip-rule="evenodd" d="M48.774 6.56l.299.243-1.027 3.899-.343-.28.276-1.017-1.54-1.252-.943.476-.327-.267 3.605-1.802zm-1.976 1.408l1.289 1.048.53-1.966-1.82.918z" fill="#fff"/><path d="M48.574 11.27l1.675 1.807.28-.259-1.396-1.505 2.395-2.22-.28-.303-2.674 2.48z" fill="#fff"/><path fill-rule="evenodd" clip-rule="evenodd" d="M55.656 16.629a1.918 1.918 0 01-.55.483 1.89 1.89 0 01-1.4.231 1.844 1.844 0 01-.658-.293 1.87 1.87 0 01-.518-.578 1.869 1.869 0 01-.258-.73 1.836 1.836 0 01.052-.71 1.91 1.91 0 01.32-.633 2.025 2.025 0 011.244-.731 1.86 1.86 0 01.714.019c.232.052.45.15.654.296.206.144.38.336.522.575.142.239.227.48.255.726a1.78 1.78 0 01-.377 1.345zm-1.338.327c.195-.031.383-.1.562-.206.179-.106.33-.238.45-.395a1.413 1.413 0 00.116-1.612 1.39 1.39 0 00-1.463-.67 1.61 1.61 0 00-.555.207 1.65 1.65 0 00-.453.39 1.459 1.459 0 00-.305 1.059c.022.193.086.38.192.558.106.18.237.325.39.435.16.111.33.186.51.225.18.038.365.041.556.009z" fill="#fff"/><path d="M58.29 19.917l-.995-2.425-3.373 1.385.156.38 1.47-.603.75 1.827.346-.142-.75-1.827 1.205-.494.839 2.043.351-.144zm.407 1.266l.665 2.535-.367.096-.562-2.136-1.259.33.502 1.91-.363.096-.502-1.91-1.536.404-.105-.398 3.527-.927zm1.229 6.464l-.324-2.616-3.618.448.327 2.642.372-.046-.276-2.234 1.266-.156.245 1.975.372-.046-.245-1.976 1.236-.153.273 2.208.372-.046z" fill="#fff"/><path fill-rule="evenodd" clip-rule="evenodd" d="M57.806 30.931l-1.512 1.09.01-.505 1.438-1.03.02-1.041-1.416-.029.008-.411 3.646.073-.031 1.568a1.744 1.744 0 01-.09.54 1.2 1.2 0 01-.232.413.956.956 0 01-.349.259 1.02 1.02 0 01-.444.084 1.098 1.098 0 01-.41-.08.946.946 0 01-.309-.215 1.142 1.142 0 01-.212-.317 1.463 1.463 0 01-.117-.399zm.724.515a.68.68 0 00.316.08c.23.004.408-.074.537-.235.131-.16.2-.389.206-.684l.023-1.125-1.48-.03-.022 1.12c-.003.136.012.261.045.377a.95.95 0 00.14.3c.064.084.142.15.235.197z" fill="#fff"/><path d="M58.866 33.536a.538.538 0 01.224.087.58.58 0 01.162.182.9.9 0 01.084.587 1.544 1.544 0 01-.173.517 1.77 1.77 0 01-.376.465l.278.284a1.935 1.935 0 00.635-1.2 1.415 1.415 0 00-.005-.485 1.15 1.15 0 00-.149-.408.906.906 0 00-.271-.294.906.906 0 00-.383-.148.98.98 0 00-.403.013.784.784 0 00-.322.178 1.363 1.363 0 00-.268.344c-.082.145-.16.318-.236.517-.07.183-.137.33-.2.444a1.03 1.03 0 01-.193.266.461.461 0 01-.207.116.586.586 0 01-.233.007.544.544 0 01-.414-.29c-.091-.161-.119-.364-.082-.607.038-.251.113-.466.225-.646.115-.18.272-.35.473-.513l-.26-.298a2.34 2.34 0 00-.542.613 2.226 2.226 0 00-.259.773 1.644 1.644 0 00-.003.505c.025.158.074.298.147.418a.958.958 0 00.694.463c.278.042.51-.02.698-.189.186-.165.355-.441.505-.83.071-.192.139-.35.203-.47a1.21 1.21 0 01.2-.275.483.483 0 01.213-.12.624.624 0 01.238-.006zm-2.987 7.466l-.392-.156.535-1.347.393.156-.536 1.347zm-1.453 4.756a.538.538 0 01.163.175.58.58 0 01.066.236.86.86 0 01-.036.272c-.03.098-.078.195-.145.293a1.542 1.542 0 01-.381.388c-.15.108-.33.192-.542.254l.126.377a1.933 1.933 0 001.096-.8c.098-.144.168-.29.207-.44.043-.147.058-.291.045-.431a.906.906 0 00-.395-.684.982.982 0 00-.368-.165.784.784 0 00-.367.02 1.36 1.36 0 00-.392.191 3.896 3.896 0 00-.439.362 3.58 3.58 0 01-.373.312 1.027 1.027 0 01-.29.154.46.46 0 01-.237.014.587.587 0 01-.212-.096.544.544 0 01-.246-.441c-.012-.186.052-.38.192-.583.144-.209.305-.37.484-.482.182-.111.399-.196.65-.255l-.104-.381a2.339 2.339 0 00-.755.315c-.215.147-.405.34-.57.58a1.64 1.64 0 00-.224.454c-.047.153-.064.3-.05.44a.957.957 0 00.42.72c.232.16.469.205.71.135.24-.066.513-.241.818-.525.148-.142.278-.253.388-.333.113-.078.213-.132.3-.16a.481.481 0 01.244-.015c.073.016.145.05.217.099z" fill="#fff"/><path fill-rule="evenodd" clip-rule="evenodd" d="M50.813 50.616a1.137 1.137 0 01-.425-.252 1.126 1.126 0 01-.309-.433 1.088 1.088 0 01-.068-.483c.011-.163.056-.326.134-.49.08-.16.186-.313.316-.457l.593-.655-.952-.862.276-.305 2.698 2.444-.915 1.01a1.75 1.75 0 01-.435.356 1.192 1.192 0 01-.459.167.924.924 0 01-.455-.04zm-.355-.848a.756.756 0 00.197.277c.196.177.402.243.621.198.219-.04.427-.17.625-.388l.618-.683-1.187-1.075-.604.667c-.1.11-.177.224-.23.34a.943.943 0 00-.093.343.71.71 0 00.053.321z" fill="#fff"/><path d="M48.343 53.74l2.002-1.714-2.37-2.772-2.022 1.73.244.286 1.71-1.463.83.97-1.513 1.294.244.285 1.512-1.294.809.947-1.69 1.446.244.285zm-5.078-.004l-.371-.08c.027-.133.064-.26.11-.384a1.836 1.836 0 01.424-.655c.097-.099.217-.193.358-.282a1.797 1.797 0 012.04.063 2 2 0 01.509.553 1.89 1.89 0 01.27 1.406 1.731 1.731 0 01-.276.655c-.138.206-.32.38-.545.523a2.187 2.187 0 01-.401.203 1.76 1.76 0 01-.748.114 2.516 2.516 0 01-.362-.048l.076-.406c.21.04.417.052.62.035.2-.015.405-.09.616-.223.17-.108.309-.24.415-.397a1.405 1.405 0 00.205-1.072 1.626 1.626 0 00-.226-.553 1.528 1.528 0 00-.911-.694 1.475 1.475 0 00-.551-.035 1.381 1.381 0 00-.537.204 1.43 1.43 0 00-.474.459c-.103.175-.183.38-.241.614zm.194 3.041l-1.604-3.282-.37.18 1.604 3.283.37-.181z" fill="#fff"/><path fill-rule="evenodd" clip-rule="evenodd" d="M40.491 58.085l-.362.132-2.82-2.88.416-.152.731.76 1.864-.682.076-1.054.396-.145-.3 4.02zm-.196-2.42l-1.56.571 1.416 1.463.144-2.033z" fill="#fff"/><path d="M36.551 55.498l-2.41.509.078.372 2.008-.424.674 3.196.403-.085-.753-3.568z" fill="#fff"/><path fill-rule="evenodd" clip-rule="evenodd" d="M28.4 58.866a1.918 1.918 0 01-.147-.717 1.96 1.96 0 01.124-.726 1.847 1.847 0 01.952-1.032 1.87 1.87 0 01.758-.163 1.87 1.87 0 01.762.139c.228.097.424.23.59.397.166.17.296.368.39.592a2.027 2.027 0 01.018 1.444c-.086.23-.21.434-.37.61a1.78 1.78 0 01-.582.421 1.82 1.82 0 01-.758.169 1.834 1.834 0 01-.757-.14 1.78 1.78 0 01-.98-.994zm.38-1.325c-.07.186-.104.383-.1.59.003.21.043.405.119.588a1.414 1.414 0 001.343.9 1.39 1.39 0 001.308-.938c.066-.182.098-.377.094-.585a1.65 1.65 0 00-.114-.587 1.457 1.457 0 00-.768-.79 1.389 1.389 0 00-.58-.11 1.407 1.407 0 00-.57.123 1.379 1.379 0 00-.448.33 1.469 1.469 0 00-.284.48z" fill="#fff"/><path d="M24.133 59.4l2.594.393.546-3.61-.407-.062-.238 1.573-1.954-.296-.056.371 1.954.297-.196 1.289-2.186-.331-.057.376zm-1.281-.302l-2.518-.727.106-.365 2.122.612.36-1.251-1.896-.547.104-.36 1.896.546.44-1.526.396.114-1.01 3.504zm-6.179-2.256l2.412 1.063 1.47-3.338-2.437-1.073-.15.343 2.058.907-.514 1.169-1.82-.802-.152.343 1.821.802-.501 1.14-2.036-.897-.15.343z" fill="#fff"/><path fill-rule="evenodd" clip-rule="evenodd" d="M14.935 53.345l-.162-1.86.43.267.147 1.766.885.552.751-1.205.35.218-1.932 3.1-1.333-.83a1.744 1.744 0 01-.419-.354 1.202 1.202 0 01-.235-.412.959.959 0 01-.044-.433c.017-.145.069-.287.155-.426.081-.13.175-.233.28-.311a.95.95 0 01.343-.155 1.15 1.15 0 01.382-.02c.134.014.268.048.402.103zm-.814.36a.682.682 0 00-.23.23c-.122.196-.146.39-.074.582.07.196.232.372.482.528l.957.597.784-1.258-.952-.593a1.289 1.289 0 00-.347-.155.95.95 0 00-.33-.033.677.677 0 00-.29.101z" fill="#fff"/><path d="M12.16 52.9a.539.539 0 01-.19.147.58.58 0 01-.24.045.856.856 0 01-.268-.06 1.05 1.05 0 01-.278-.17 1.546 1.546 0 01-.354-.414 1.769 1.769 0 01-.204-.562l-.388.093a1.932 1.932 0 00.702 1.162c.134.11.274.192.419.245.143.056.285.083.426.082a.906.906 0 00.392-.081.907.907 0 00.324-.253.984.984 0 00.196-.352.784.784 0 00.013-.367 1.36 1.36 0 00-.157-.407 3.888 3.888 0 00-.322-.47 3.552 3.552 0 01-.278-.399 1.029 1.029 0 01-.128-.302.46.46 0 01.007-.238.588.588 0 01.114-.203.544.544 0 01.461-.206c.186.005.373.085.563.243.195.161.341.336.438.524.095.191.16.414.197.67l.389-.07a2.339 2.339 0 00-.248-.78 2.213 2.213 0 00-.528-.62 1.643 1.643 0 00-.432-.262 1.137 1.137 0 00-.434-.089.958.958 0 00-.754.357c-.18.217-.245.448-.197.696.046.244.196.531.451.86.13.16.229.299.299.416.068.119.112.223.133.313a.483.483 0 01-.007.244.628.628 0 01-.117.208zm-4.844-6.387l.333-.257.883 1.144-.333.257-.883-1.144zm-3.363-3.686a.538.538 0 01-.235.05.578.578 0 01-.235-.064.853.853 0 01-.216-.17 1.05 1.05 0 01-.177-.274 1.544 1.544 0 01-.138-.527 1.77 1.77 0 01.06-.595l-.39-.086a1.935 1.935 0 00.127 1.352c.073.158.163.292.271.403.105.113.221.199.348.26a.905.905 0 00.79.01.983.983 0 00.33-.232.785.785 0 00.171-.325c.034-.126.046-.271.036-.435a3.892 3.892 0 00-.086-.562 3.566 3.566 0 01-.077-.48 1.03 1.03 0 01.016-.329.461.461 0 01.11-.21.588.588 0 01.19-.134.544.544 0 01.505.015c.165.085.3.24.402.463.106.23.161.452.166.663a2.22 2.22 0 01-.114.689l.381.106a2.34 2.34 0 00.116-.81 2.213 2.213 0 00-.206-.788 1.64 1.64 0 00-.275-.424 1.136 1.136 0 00-.352-.268.958.958 0 00-.834-.008c-.256.118-.416.298-.48.541-.066.24-.055.564.032.971.046.2.076.369.088.505.01.137.004.25-.016.34a.483.483 0 01-.112.217.627.627 0 01-.196.136z" fill="#fff"/><path fill-rule="evenodd" clip-rule="evenodd" d="M1.613 37.236A1.14 1.14 0 012.047 37c.19-.058.367-.072.532-.043.165.03.315.092.45.189.134.093.251.215.352.366a2 2 0 01.232.506l.26.847 1.23-.378.12.393-3.483 1.07-.401-1.305a1.757 1.757 0 01-.084-.557c0-.178.03-.338.092-.48a.927.927 0 01.267-.372zm.912.129a.756.756 0 00-.34.028c-.253.078-.415.222-.488.434-.078.209-.073.454.013.737l.271.881 1.534-.471-.265-.862a1.352 1.352 0 00-.174-.371.944.944 0 00-.248-.257.712.712 0 00-.303-.119z" fill="#fff"/><path d="M.212 33.456l.422 2.61 3.61-.583-.427-2.636-.37.06.36 2.228-1.264.205-.318-1.97-.372.06.319 1.97-1.233.199-.355-2.203-.372.06zm2.626-4.312l.26-.276c.099.091.19.188.272.29a1.833 1.833 0 01.344.701c.034.135.053.286.057.453a1.8 1.8 0 01-.512 1.32c-.167.166-.363.3-.59.398a1.999 1.999 0 01-.737.152 1.888 1.888 0 01-1.345-.49 1.73 1.73 0 01-.419-.575 1.796 1.796 0 01-.167-.736 2.186 2.186 0 01.031-.449c.025-.136.062-.262.112-.378.046-.115.104-.223.175-.322.067-.098.143-.194.228-.286l.308.274c-.142.16-.258.331-.348.514-.09.179-.132.393-.126.643.004.202.047.389.127.56a1.405 1.405 0 00.814.727c.182.066.379.096.59.091a1.526 1.526 0 001.064-.425 1.49 1.49 0 00.313-.455c.072-.175.106-.364.102-.565a1.43 1.43 0 00-.15-.643 2.314 2.314 0 00-.403-.523zM.14 27.779l3.635.288.032-.41-3.634-.288-.032.41z" fill="#fff"/><path fill-rule="evenodd" clip-rule="evenodd" d="M.527 24.536l.072-.379 3.918-.947-.083.435-1.026.24-.37 1.95.866.604-.08.415-3.297-2.318zm2.177 1.071l.31-1.633-1.98.467 1.67 1.166z" fill="#fff"/><path d="M4.75 22.477l.788-2.341-.361-.122-.657 1.95-3.102-1.045-.132.391 3.464 1.167z" fill="#fff"/><path fill-rule="evenodd" clip-rule="evenodd" d="M6.095 13.711a1.975 1.975 0 011.24.736 1.847 1.847 0 01.38 1.351 1.87 1.87 0 01-.258.732 1.869 1.869 0 01-.518.577 1.833 1.833 0 01-.647.295 1.89 1.89 0 01-.709.021 2.025 2.025 0 01-1.238-.74 1.877 1.877 0 01-.326-.636 1.78 1.78 0 01-.053-.716c.027-.25.111-.495.253-.734.142-.239.313-.43.515-.572a1.779 1.779 0 011.36-.314zm.928 1.018a1.583 1.583 0 00-.45-.395 1.583 1.583 0 00-.562-.206 1.41 1.41 0 00-1.47.672 1.39 1.39 0 00-.147 1.106 1.528 1.528 0 00.709.887c.18.107.366.177.56.21a1.457 1.457 0 001.075-.24 1.39 1.39 0 00.397-.436c.106-.18.17-.363.194-.551a1.382 1.382 0 00-.047-.555 1.469 1.469 0 00-.259-.492z" fill="#fff"/><path d="M7.79 9.827L6.127 11.85l2.814 2.318.262-.317-1.227-1.01 1.255-1.525-.29-.238-1.254 1.524-1.005-.828 1.403-1.705-.293-.242zm.935-.941l1.912-1.782.259.278-1.612 1.502.885.95 1.441-1.342.255.274-1.44 1.342 1.08 1.16-.3.28-2.48-2.662zM13.8 4.76l-2.134 1.53 2.114 2.953L15.936 7.7l-.217-.304-1.823 1.306-.74-1.034 1.612-1.155-.218-.303-1.611 1.154-.722-1.009 1.801-1.29-.218-.304z" fill="#fff"/><path fill-rule="evenodd" clip-rule="evenodd" d="M17.692 5.029l1.68.806-.448.233-1.592-.77-.924.48.653 1.258-.365.19-1.68-3.237 1.39-.723c.18-.093.351-.153.517-.18.169-.03.327-.027.473.006.145.03.276.092.394.183.117.088.212.205.288.35a1.1 1.1 0 01.125.399.949.949 0 01-.041.373c-.037.117-.096.23-.177.338-.08.109-.178.207-.293.294zm.105-.883a.68.68 0 00-.082-.315c-.106-.204-.26-.323-.462-.359-.204-.039-.437.01-.699.146l-.998.519.682 1.313.993-.517c.12-.062.223-.135.309-.219a.95.95 0 00.196-.266.677.677 0 00.06-.302z" fill="#fff"/><path d="M19.528 2.888a.536.536 0 01-.028-.237.575.575 0 01.085-.228.85.85 0 01.189-.199c.08-.061.177-.111.288-.15.176-.062.354-.092.535-.09.184.002.379.04.584.115l.12-.378a1.927 1.927 0 00-1.352.002 1.41 1.41 0 00-.424.231 1.148 1.148 0 00-.289.322.903.903 0 00-.082.782c.05.144.116.26.199.348a.782.782 0 00.306.2c.123.046.265.07.428.076.167.004.355-.007.566-.034a3.55 3.55 0 01.484-.032c.132.001.24.016.323.046.084.03.15.072.2.128.047.053.086.12.114.202a.542.542 0 01-.06.5c-.1.156-.265.274-.497.356a1.686 1.686 0 01-.673.104 2.196 2.196 0 01-.672-.177l-.14.369c.27.114.535.177.792.189.26.008.526-.036.8-.133.17-.06.318-.137.446-.233s.227-.205.299-.325a.956.956 0 00.083-.827c-.093-.265-.257-.44-.492-.526-.233-.087-.554-.106-.966-.057a3.81 3.81 0 01-.508.041 1.205 1.205 0 01-.336-.047.481.481 0 01-.205-.131.626.626 0 01-.117-.207zm7.969-.881l.046.418-1.433.16-.047-.419 1.434-.159z" fill="#fff"/></svg>