<svg width="12" height="13" fill="none" xmlns="http://www.w3.org/2000/svg"><path d="M5.995 2.913a3.081 3.081 0 100 6.163 3.081 3.081 0 000-6.163zm0 5.083a2.002 2.002 0 110-4.004 2.002 2.002 0 010 4.004zm3.204-4.478a.718.718 0 100-1.436.718.718 0 000 1.437z" fill="#fff"/><path d="M11.682 2.07A3.068 3.068 0 009.928.316 4.402 4.402 0 008.47.036C7.829.008 7.626 0 5.999 0 4.37 0 4.163 0 3.526.036a4.36 4.36 0 00-1.455.28A3.065 3.065 0 00.317 2.07c-.176.466-.27.959-.28 1.456C.01 4.167 0 4.371 0 6c0 1.626 0 1.833.037 2.47.01.498.104.99.28 1.457a3.072 3.072 0 001.755 1.754 4.38 4.38 0 001.456.3c.641.028.845.037 2.472.037s1.836 0 2.472-.037c.498-.01.99-.104 1.457-.28a3.075 3.075 0 001.755-1.754 4.39 4.39 0 00.279-1.456c.028-.641.037-.845.037-2.473s0-1.834-.037-2.472a4.386 4.386 0 00-.28-1.477zm-.812 6.352a3.362 3.362 0 01-.207 1.124 1.99 1.99 0 01-1.14 1.14 3.323 3.323 0 01-1.113.208c-.633.03-.812.037-2.435.037-1.625 0-1.79 0-2.436-.037a3.304 3.304 0 01-1.112-.207 1.99 1.99 0 01-1.146-1.14 3.385 3.385 0 01-.207-1.113C1.046 7.801 1.04 7.623 1.04 6s0-1.79.035-2.435c.004-.384.075-.764.207-1.124A1.99 1.99 0 012.428 1.3a3.339 3.339 0 011.112-.207c.634-.03.812-.037 2.436-.037 1.624 0 1.79 0 2.435.037.38.004.756.074 1.112.207a1.992 1.992 0 011.141 1.14c.131.357.201.733.207 1.113.03.633.037.811.037 2.435s0 1.798-.03 2.435h-.007z" fill="#fff"/></svg>