<svg width="85" height="18" fill="none" xmlns="http://www.w3.org/2000/svg"><path d="M8.57.538c1.39 0 2.505.132 3.348.397.859.25 1.452.694 1.78 1.333.328.624.421 1.504.281 2.642-.156 1.122-.476 1.964-.96 2.525-.468.561-1.249.889-2.342.982l-.023.14c1.249.11 2.092.554 2.529 1.333.437.764.562 1.8.374 3.11-.156 1.076-.46 1.91-.913 2.502-.452.577-1.1.982-1.943 1.216-.843.218-1.92.327-3.231.327-1.156 0-2.155-.008-2.998-.023a52.86 52.86 0 01-2.318-.047c-.702-.031-1.42-.07-2.154-.117L2.271.725C2.911.662 3.536.624 4.145.608A40.008 40.008 0 016.135.56C6.853.546 7.665.538 8.57.538zm-.164 3.11H6.158L5.667 7.13h1.966c.734 0 1.241-.124 1.522-.374.297-.25.508-.771.633-1.566.078-.608.015-1.013-.188-1.216-.187-.218-.585-.327-1.194-.327zM7.54 9.867H5.268l-.561 4.068H6.65c.578 0 1.038-.054 1.381-.163.344-.11.594-.32.75-.632.171-.311.304-.756.398-1.332.11-.795.054-1.317-.164-1.567-.219-.25-.71-.374-1.475-.374zM22.302 4.91c1.53 0 2.708.164 3.535.491.843.312 1.405.78 1.686 1.403.297.624.375 1.395.235 2.315-.157 1.06-.625 1.792-1.405 2.198-.765.39-1.913.639-3.443.748l-3.207.257c.015.655.18 1.076.491 1.263.313.171.804.257 1.476.257.343 0 .788-.008 1.334-.024l1.733-.093c.609-.047 1.14-.094 1.592-.14l.305 2.618c-.78.343-1.655.585-2.623.725-.952.14-1.865.21-2.74.21-1.67 0-2.958-.233-3.863-.7-.905-.484-1.507-1.185-1.803-2.105-.297-.92-.375-2.058-.234-3.414.187-1.637.562-2.884 1.124-3.74.562-.874 1.327-1.466 2.294-1.778.968-.327 2.139-.49 3.513-.49zm-.024 2.83c-.484 0-.874.07-1.17.21-.282.124-.516.358-.703.701-.172.343-.32.842-.445 1.497l1.967-.21c.546-.048.96-.141 1.241-.281.281-.14.453-.46.515-.96.063-.404-.008-.67-.21-.794-.203-.125-.601-.18-1.195-.164zm12.437-2.83a48.66 48.66 0 011.943.094c.703.03 1.382.085 2.037.163.656.078 1.21.164 1.663.258l-.351 2.501h-2.295c-.75-.015-1.483-.023-2.201-.023-.859 0-1.436.023-1.733.07-.296.031-.46.156-.492.374a.434.434 0 00.211.468c.188.109.515.241.984.397l2.716.842c.936.28 1.623.71 2.06 1.286.453.577.625 1.34.516 2.291-.125.998-.43 1.746-.914 2.245-.484.499-1.14.826-1.967.982-.827.171-1.803.257-2.927.257-.811 0-1.67-.03-2.575-.093a34.59 34.59 0 01-3.068-.374l.375-2.526c.234.016.57.024 1.007.024h2.857c.843 0 1.483-.016 1.92-.047.437-.031.741-.086.913-.164.172-.093.265-.218.28-.374.032-.202-.046-.35-.233-.444-.172-.094-.531-.226-1.077-.397l-2.623-.866c-1.03-.327-1.74-.81-2.13-1.45-.375-.654-.5-1.449-.375-2.384.109-.686.343-1.255.702-1.707.375-.468.945-.818 1.71-1.052.764-.234 1.787-.35 3.067-.35zm11.358.327l.047 2.175a9.286 9.286 0 012.529-1.824c.921-.452 1.81-.678 2.67-.678.967 0 1.74.28 2.317.842.594.561.812 1.387.656 2.478l-1.218 8.628h-4.261l1.03-7.272c.063-.42.04-.709-.07-.865-.11-.171-.344-.241-.703-.21-.359.015-.757.125-1.194.327-.421.187-.928.507-1.522.959l-.983 7.061h-4.262l1.616-11.62h3.348zM60.74 0c.92 0 1.326.444 1.217 1.333l-.164 1.239c-.109.78-.577 1.169-1.405 1.169h-1.686c-.905 0-1.303-.444-1.194-1.333l.164-1.239C57.75.39 58.211 0 59.054 0h1.686zm.608 5.237l-1.615 11.621h-4.238l1.615-11.62h4.238zM68.771.491l-.913 6.71c-.093.5-.218.983-.374 1.45-.156.452-.352.912-.586 1.38a9.72 9.72 0 002.74-2.035c.796-.857 1.311-1.777 1.545-2.759h4.379c-.328 1.31-.85 2.409-1.569 3.297a10.593 10.593 0 01-2.412 2.245c.281.218.515.46.703.725.187.25.343.514.468.795l2.154 4.56h-4.378l-2.038-4.514-.749.281c-.25.078-.492.156-.726.234 0 .156-.008.296-.023.42l-.515 3.578h-4.262L64.51.491h4.261zM85 15.077A2.925 2.925 0 0182.073 18a2.925 2.925 0 01-2.927-2.923 2.925 2.925 0 012.927-2.922A2.925 2.925 0 0185 15.077z" fill="#fff"/></svg>