<svg width="13" height="9" fill="none" xmlns="http://www.w3.org/2000/svg"><path d="M12.736 1.415a1.605 1.605 0 00-.42-.718c-.2-.199-.45-.343-.725-.416C10.574.005 6.505 0 6.505 0s-4.07-.004-5.087.26a1.667 1.667 0 00-.725.422c-.2.2-.346.448-.422.72C.003 2.407 0 4.494 0 4.494S-.003 6.59.264 7.586c.15.55.588.985 1.145 1.133C2.436 8.996 6.495 9 6.495 9s4.07.004 5.086-.259a1.632 1.632 0 001.148-1.132c.269-1.005.27-3.091.27-3.091s.014-2.097-.264-3.103zM5.202 6.426l.003-3.854 3.382 1.93-3.385 1.924z" fill="#fff"/></svg>